<?xml version="1.0" encoding="utf-8"?>
<!-- Generator: Adobe Illustrator 22.1.0, SVG Export Plug-In . SVG Version: 6.00 Build 0)  -->
<svg version="1.1" id="Layer_1" xmlns="http://www.w3.org/2000/svg" xmlns:xlink="http://www.w3.org/1999/xlink" x="0px" y="0px"
	 viewBox="0 0 922 195" style="enable-background:new 0 0 922 195;" xml:space="preserve">
<style type="text/css">
	.st0{fill:#B1B1AF;}
	.st1{fill:#999896;}
	.st2{fill:#858381;}
	.st3{fill:#FFFFFF;}
	.st4{fill:#605D59;}
	.st5{fill:#312F2E;}
</style>
<g>
	<g>
		<path class="st0" d="M0,187.1c8-1.3,15.7-3.9,23.1-7.1c7.4-3.2,14.5-6.9,21.5-10.9c13.9-8.2,27.1-17.4,40.2-26.8
			c6.6-4.6,13.3-9.1,20-13.7c6.7-4.6,13.4-9.1,20.2-13.5c13.6-8.8,27.5-17.2,42.2-24.2c3.6-1.8,7.4-3.4,11.1-5.1
			c1.9-0.8,3.8-1.5,5.7-2.3l2.8-1.1c1-0.4,1.9-0.7,2.9-1l5.8-2l5.9-1.7c2-0.6,4-1,5.9-1.5l3-0.7l1.5-0.3l1.5-0.3l6.1-1
			c2-0.3,4.1-0.5,6.1-0.7l3.1-0.3l3.1-0.1c2-0.1,4.1-0.2,6.1-0.2c8.1,0.1,16.2,0.3,24.4,0.9c16.2,1.2,32.4,3.8,48.1,8.3
			c7.8,2.2,15.5,4.9,23.1,7.9c7.6,3,15,6.3,22.4,9.5c7.4,3.2,14.8,6.4,22.3,9.2c7.5,2.8,15.1,5.2,22.9,7.1
			c7.8,1.9,15.6,3.4,23.6,4.3c8,0.9,15.9,1.5,24,1.6c4,0.2,8,0,12,0c4,0,8-0.3,12-0.4c7.9-0.4,15.8-1.6,23.6-3.4
			c7.8-1.7,15.5-4.1,23-6.8c7.6-2.7,15-5.8,22.3-9.1c14.6-6.7,28.8-14.4,42.6-22.5c6.9-4.1,13.8-8.3,20.6-12.6
			c3.4-2.2,6.8-4.3,10.2-6.5c3.4-2.2,6.7-4.4,10.1-6.6c13.7-8.6,27.2-17.4,41-25.8c6.9-4.2,13.9-8.3,21.2-11.9
			c3.6-1.8,7.3-3.5,11.1-4.9c1.9-0.7,3.8-1.3,5.8-1.7c2-0.4,4-0.7,6-0.6c-2,0-4,0.4-6,0.9c-1.9,0.5-3.8,1.2-5.7,2
			c-3.7,1.5-7.3,3.4-10.8,5.3c-7,3.9-13.8,8.3-20.6,12.7c-13.4,8.9-26.6,18.3-40,27.4C613.6,66,600,74.6,586.1,82.9
			c-14,8.2-28.2,16-43,22.7c-7.4,3.4-14.9,6.5-22.6,9.2c-7.7,2.7-15.5,5.1-23.5,6.9c-8,1.8-16.1,3-24.3,3.5
			c-4.1,0.1-8.1,0.4-12.2,0.4c-4.1,0-8.1,0.1-12.2,0c-8.1-0.1-16.3-0.7-24.4-1.7c-8.1-0.9-16.1-2.4-24.1-4.4
			c-7.9-1.9-15.7-4.4-23.4-7.2c-7.6-2.8-15.1-6.1-22.5-9.3c-7.4-3.2-14.8-6.5-22.2-9.5c-7.5-3-15-5.6-22.7-7.8
			c-15.4-4.4-31.3-7-47.3-8.2c-8-0.7-16-0.8-24.1-0.9c-2,0-4,0.1-6,0.2l-3,0.1l-3,0.3c-2,0.2-4,0.4-5.9,0.7l-5.9,1l-1.5,0.2
			l-1.5,0.3l-2.9,0.7c-1.9,0.5-3.9,0.9-5.8,1.5l-5.7,1.7l-5.7,1.9c-0.9,0.3-1.9,0.6-2.8,1l-2.8,1.1c-1.9,0.7-3.7,1.4-5.6,2.2
			c-3.7,1.6-7.3,3.2-10.9,5c-14.5,6.9-28.2,15.3-41.8,24c-6.8,4.4-13.5,8.9-20.1,13.4c-6.7,4.5-13.2,9.2-20,13.7
			c-13.5,8.9-27.2,17.6-41.5,25.3c-7.2,3.8-14.5,7.3-22.1,10.2C15.9,184,8,186.2,0,187.1z"/>
	</g>
	<g>
		<path class="st1" d="M22.4,187.1c8-1.3,15.7-3.9,23.1-7.1c7.4-3.2,14.5-6.9,21.5-10.9c13.9-8.2,27.1-17.4,40.2-26.8
			c6.6-4.6,13.3-9.1,20-13.7c6.7-4.6,13.4-9.1,20.2-13.5C161,106.4,174.9,98,189.6,91c3.6-1.8,7.4-3.4,11.1-5.1
			c1.9-0.8,3.8-1.5,5.7-2.3l2.8-1.1c1-0.4,1.9-0.7,2.9-1l5.8-2l5.9-1.7c2-0.6,4-1,5.9-1.5l3-0.7l1.5-0.3l1.5-0.3l6.1-1
			c2-0.3,4.1-0.5,6.1-0.7L251,73l3.1-0.1c2-0.1,4.1-0.2,6.1-0.2c8.1,0.1,16.2,0.3,24.4,0.9c16.2,1.2,32.4,3.8,48.1,8.3
			c7.8,2.2,15.5,4.9,23.1,7.9c7.6,3,15,6.3,22.4,9.5c7.4,3.2,14.8,6.4,22.3,9.2c7.5,2.8,15.1,5.2,22.9,7.1
			c7.8,1.9,15.6,3.4,23.6,4.3c8,0.9,15.9,1.5,24,1.6c4,0.2,8,0,12,0c4,0,8-0.3,12-0.4c7.9-0.4,15.8-1.6,23.6-3.4
			c7.8-1.7,15.5-4.1,23-6.8c7.6-2.7,15-5.8,22.3-9.1c14.6-6.7,28.8-14.4,42.6-22.5c6.9-4.1,13.8-8.3,20.6-12.6
			c3.4-2.2,6.8-4.3,10.2-6.5c3.4-2.2,6.7-4.4,10.1-6.6c13.7-8.6,27.2-17.4,41-25.8c6.9-4.2,13.9-8.3,21.2-11.9
			c3.6-1.8,7.3-3.5,11.1-4.9c1.9-0.7,3.8-1.3,5.8-1.7c2-0.4,4-0.7,6-0.6c-2,0-4,0.4-6,0.9c-1.9,0.5-3.8,1.2-5.7,2
			c-3.7,1.5-7.3,3.4-10.8,5.3c-7,3.9-13.8,8.3-20.6,12.7c-13.4,8.9-26.6,18.3-40,27.4C636,66,622.4,74.6,608.4,82.9
			c-14,8.2-28.2,16-43,22.7c-7.4,3.4-14.9,6.5-22.6,9.2c-7.7,2.7-15.5,5.1-23.5,6.9c-8,1.8-16.1,3-24.3,3.5
			c-4.1,0.1-8.1,0.4-12.2,0.4c-4.1,0-8.1,0.1-12.2,0c-8.1-0.1-16.3-0.7-24.4-1.7c-8.1-0.9-16.1-2.4-24.1-4.4
			c-7.9-1.9-15.7-4.4-23.4-7.2c-7.6-2.8-15.1-6.1-22.5-9.3c-7.4-3.2-14.8-6.5-22.2-9.5c-7.5-3-15-5.6-22.7-7.8
			c-15.4-4.4-31.3-7-47.3-8.2c-8-0.7-16-0.8-24.1-0.9c-2,0-4,0.1-6,0.2l-3,0.1l-3,0.3c-2,0.2-4,0.4-5.9,0.7l-5.9,1l-1.5,0.2
			l-1.5,0.3l-2.9,0.7c-1.9,0.5-3.9,0.9-5.8,1.5l-5.7,1.7l-5.7,1.9c-0.9,0.3-1.9,0.6-2.8,1l-2.8,1.1c-1.9,0.7-3.7,1.4-5.6,2.2
			c-3.7,1.6-7.3,3.2-10.9,5c-14.5,6.9-28.2,15.3-41.8,24c-6.8,4.4-13.5,8.9-20.1,13.4c-6.7,4.5-13.2,9.2-20,13.7
			C95.9,154.5,82.3,163.3,68,171c-7.2,3.8-14.5,7.3-22.1,10.2C38.3,184,30.4,186.2,22.4,187.1z"/>
	</g>
	<g>
		<path class="st2" d="M44.8,187.1c8-1.3,15.7-3.9,23.1-7.1c7.4-3.2,14.5-6.9,21.5-10.9c13.9-8.2,27.1-17.4,40.2-26.8
			c6.6-4.6,13.3-9.1,20-13.7c6.7-4.6,13.4-9.1,20.2-13.5C183.4,106.4,197.3,98,212,91c3.6-1.8,7.4-3.4,11.1-5.1
			c1.9-0.8,3.8-1.5,5.7-2.3l2.8-1.1c1-0.4,1.9-0.7,2.9-1l5.8-2l5.9-1.7c2-0.6,4-1,5.9-1.5l3-0.7l1.5-0.3l1.5-0.3l6.1-1
			c2-0.3,4.1-0.5,6.1-0.7l3.1-0.3l3.1-0.1c2-0.1,4.1-0.2,6.1-0.2c8.1,0.1,16.2,0.3,24.4,0.9c16.2,1.2,32.4,3.8,48.1,8.3
			c7.8,2.2,15.5,4.9,23.1,7.9c7.6,3,15,6.3,22.4,9.5c7.4,3.2,14.8,6.4,22.3,9.2c7.5,2.8,15.1,5.2,22.9,7.1
			c7.8,1.9,15.6,3.4,23.6,4.3c8,0.9,15.9,1.5,24,1.6c4,0.2,8,0,12,0c4,0,8-0.3,12-0.4c7.9-0.4,15.8-1.6,23.6-3.4
			c7.8-1.7,15.5-4.1,23-6.8c7.6-2.7,15-5.8,22.3-9.1c14.6-6.7,28.8-14.4,42.6-22.5c6.9-4.1,13.8-8.3,20.6-12.6
			c3.4-2.2,6.8-4.3,10.2-6.5c3.4-2.2,6.7-4.4,10.1-6.6c13.7-8.6,27.2-17.4,41-25.8c6.9-4.2,13.9-8.3,21.2-11.9
			c3.6-1.8,7.3-3.5,11.1-4.9c1.9-0.7,3.8-1.3,5.8-1.7c2-0.4,4-0.7,6-0.6c-2,0-4,0.4-6,0.9c-1.9,0.5-3.8,1.2-5.7,2
			c-3.7,1.5-7.3,3.4-10.8,5.3c-7,3.9-13.8,8.3-20.6,12.7c-13.4,8.9-26.6,18.3-40,27.4c-13.5,8.9-27.1,17.6-41.1,25.9
			c-14,8.2-28.2,16-43,22.7c-7.4,3.4-14.9,6.5-22.6,9.2c-7.7,2.7-15.5,5.1-23.5,6.9c-8,1.8-16.1,3-24.3,3.5
			c-4.1,0.1-8.1,0.4-12.2,0.4c-4.1,0-8.1,0.1-12.2,0c-8.1-0.1-16.3-0.7-24.4-1.7c-8.1-0.9-16.1-2.4-24.1-4.4
			c-7.9-1.9-15.7-4.4-23.4-7.2c-7.6-2.8-15.1-6.1-22.5-9.3c-7.4-3.2-14.8-6.5-22.2-9.5c-7.5-3-15-5.6-22.7-7.8
			c-15.4-4.4-31.3-7-47.3-8.2c-8-0.7-16-0.8-24.1-0.9c-2,0-4,0.1-6,0.2l-3,0.1l-3,0.3c-2,0.2-4,0.4-5.9,0.7l-5.9,1l-1.5,0.2
			l-1.5,0.3l-2.9,0.7c-1.9,0.5-3.9,0.9-5.8,1.5l-5.7,1.7l-5.7,1.9c-0.9,0.3-1.9,0.6-2.8,1l-2.8,1.1c-1.9,0.7-3.7,1.4-5.6,2.2
			c-3.7,1.6-7.3,3.2-10.9,5c-14.5,6.9-28.2,15.3-41.8,24c-6.8,4.4-13.5,8.9-20.1,13.4c-6.7,4.5-13.2,9.2-20,13.7
			c-13.5,8.9-27.2,17.6-41.5,25.3c-7.2,3.8-14.5,7.3-22.1,10.2C60.7,184,52.8,186.2,44.8,187.1z"/>
	</g>
	<g>
		<path class="st3" d="M141.4,181.5c-3.9-1.6-5-4.6-5-9.2c0-18.5,0.7-27.3,1.4-33.7c0.5-4.1,1.4-5.5,2.7-5.5c1.6,0,1.8,2.1,2.1,3.9
			c0.2,2.3,0.5,4.4,1.1,7.1c3.9,18.8,21.1,29.5,38.9,29.5c21.8,0,28.4-11.2,28.4-21.1c0-9.6-1.8-17.6-21.3-30.9l-14.2-9.8
			c-27.9-19.7-35.7-35.7-35.7-55.9c0-26.3,21.8-47.6,58.4-47.6c9.8,0,16.7,0.5,26.3,2.3c3.7,0.7,7.6,1.6,11.2,2.7
			c2.3,0.7,3,1.4,3,3.2c-0.5,7.3-0.9,11.9-0.9,32.3c0,4.1-0.7,5.7-2.5,5.7c-1.1,0-2.1-0.7-2.5-4.4c-0.2-2.3-0.9-8-4.1-13.3
			c-4.4-7.3-14.9-15.1-31.4-15.1c-18.8,0-25.6,10.5-25.6,21.1c0,7.8,2.7,16.7,18.3,27.3l11.7,7.8c32.1,21.3,42.1,35.5,42.1,58.6
			c0,15.8-7.1,31.4-24.3,41.5c-13.3,8-27.9,9.8-39.8,9.8C162.5,187.9,150.3,185.6,141.4,181.5z"/>
		<path class="st3" d="M477.8,155.2c1.8,14.9,4.1,20.6,11.7,22.9c4.6,1.4,10.1,1.8,13.1,2.1c3,0,4.4,0.7,4.4,2.3
			c0,1.8-1.8,2.3-5.5,2.3c-19,0-37.6,0-63.7-1.4c-4.4-0.2-5.3-1.6-5.3-2.7c0-0.9,0.9-1.8,2.5-2.3c3.7-1.4,3.9-2.7,3-13.1l-8.2-82
			l-47.2,88.4c-6.2,11.7-7.6,13.1-9.4,13.1c-2.5,0-3.9-2.3-10.3-12.4c-8-12.8-22-38.9-30.7-53.6c-3.9-6.6-14-25.4-18.3-33.2
			l-6.6,64.6c-0.9,9.8-0.9,14.9-0.9,18.3c0,6.6,2.3,9.4,8,10.5c3.4,0.7,5.5,0.9,8.5,1.1c3.4,0,4.1,0.7,4.1,2.1
			c0,1.8-0.9,2.5-4.6,2.5c-10.1,0-22.7-0.7-29.5-0.7c-7.1,0-17.9,0.7-26.3,0.7c-2.3,0-5,0-5-2.3c0-1.4,1.4-2.3,4.6-2.3
			c1.8-0.2,4.4-0.2,6.9-0.7c6.6-1.4,8.9-6.6,11.2-21.8l20.8-140.8c0.9-6.9,2.5-8.9,4.8-8.9c2.5,0,4.1,2.3,8.9,9.4L384.1,127
			l62.7-110.8c3.7-6,5.5-8.2,7.8-8.2c2.3,0,3.7,3.2,4.4,8.9L477.8,155.2z"/>
		<path class="st3" d="M601.7,118.3c0,17.9,0,39.2,1.1,48.8c0.5,6,2.1,10.8,8.9,11.9c3,0.5,5.7,0.7,9.8,1.1c3.7,0.2,4.6,0.9,4.6,2.5
			c0,1.4-1.1,2.1-5.3,2.1c-15.6,0-37.8-0.7-41.5-0.7c-3.9,0-26.1,0.7-33.7,0.7c-3.7,0-5.3-0.5-5.3-2.3c0-1.6,1.8-2.3,4.6-2.3
			c2.3-0.2,4.8-0.5,7.3-0.9c5-0.9,6.6-6,7.3-12.6c0.9-9.6,1.4-26.1,1.4-48.3V28.5c-8.9,0-23.1-0.2-34.6,0.5
			c-12.8,0.7-17.9,3.7-20.8,11.7c-1.1,2.5-1.6,3.9-2.1,5.3c-0.5,1.8-1.1,3.7-2.7,3.7c-2.1,0-2.1-1.8-1.8-4.6
			c0.9-9.4,3.4-21.8,5-30.5c0.5-3.4,1.1-5.7,2.5-5.7c1.6,0,2.5,0.7,7.8,1.8c4.1,0.9,16.7,1.6,25.4,1.6h99.6c7.1,0,11.2-0.5,14.4-0.9
			c3.7-0.7,5.5-1.4,7.1-1.4c2.1,0,2.3,1.4,2.3,7.1c0,3.2-1.4,24.5-1.6,30.2c-0.2,3.2-0.9,4.6-2.3,4.6c-1.8,0-2.3-1.4-2.5-4.1
			c-0.2-2.5-0.2-3.4-0.5-4.6c-0.9-7.1-4.4-12.6-17.9-13.5c-7.6-0.7-19.5-1.1-36.9-1.1V118.3z"/>
	</g>
	<g>
		<path class="st4" d="M67.1,187.1c8-1.3,15.7-3.9,23.1-7.1c7.4-3.2,14.5-6.9,21.5-10.9c13.9-8.2,27.1-17.4,40.2-26.8
			c6.6-4.6,13.3-9.1,20-13.7c6.7-4.6,13.4-9.1,20.2-13.5c13.6-8.8,27.5-17.2,42.2-24.2c3.6-1.8,7.4-3.4,11.1-5.1
			c1.9-0.8,3.8-1.5,5.7-2.3l2.8-1.1c1-0.4,1.9-0.7,2.9-1l5.8-2l5.9-1.7c2-0.6,4-1,5.9-1.5l3-0.7l1.5-0.3l1.5-0.3l6.1-1
			c2-0.3,4.1-0.5,6.1-0.7l3.1-0.3l3.1-0.1c2-0.1,4.1-0.2,6.1-0.2c8.1,0.1,16.2,0.3,24.4,0.9c16.2,1.2,32.4,3.8,48.1,8.3
			c7.8,2.2,15.5,4.9,23.1,7.9c7.6,3,15,6.3,22.4,9.5c7.4,3.2,14.8,6.4,22.3,9.2c7.5,2.8,15.1,5.2,22.9,7.1
			c7.8,1.9,15.6,3.4,23.6,4.3c8,0.9,15.9,1.5,24,1.6c4,0.2,8,0,12,0c4,0,8-0.3,12-0.4c7.9-0.4,15.8-1.6,23.6-3.4
			c7.8-1.7,15.5-4.1,23-6.8c7.6-2.7,15-5.8,22.3-9.1c14.6-6.7,28.8-14.4,42.6-22.5c6.9-4.1,13.8-8.3,20.6-12.6
			c3.4-2.2,6.8-4.3,10.2-6.5c3.4-2.2,6.7-4.4,10.1-6.6c13.7-8.6,27.2-17.4,41-25.8c6.9-4.2,13.9-8.3,21.2-11.9
			c3.6-1.8,7.3-3.5,11.1-4.9c1.9-0.7,3.8-1.3,5.8-1.7c2-0.4,4-0.7,6-0.6c-2,0-4,0.4-6,0.9c-1.9,0.5-3.8,1.2-5.7,2
			c-3.7,1.5-7.3,3.4-10.8,5.3c-7,3.9-13.8,8.3-20.6,12.7c-13.4,8.9-26.6,18.3-40,27.4c-13.5,8.9-27.1,17.6-41.1,25.9
			c-14,8.2-28.2,16-43,22.7c-7.4,3.4-14.9,6.5-22.6,9.2c-7.7,2.7-15.5,5.1-23.5,6.9c-8,1.8-16.1,3-24.3,3.5
			c-4.1,0.1-8.1,0.4-12.2,0.4c-4.1,0-8.1,0.1-12.2,0c-8.1-0.1-16.3-0.7-24.4-1.7c-8.1-0.9-16.1-2.4-24.1-4.4
			c-7.9-1.9-15.7-4.4-23.4-7.2c-7.6-2.8-15.1-6.1-22.5-9.3c-7.4-3.2-14.8-6.5-22.2-9.5c-7.5-3-15-5.6-22.7-7.8
			c-15.4-4.4-31.3-7-47.3-8.2c-8-0.7-16-0.8-24.1-0.9c-2,0-4,0.1-6,0.2l-3,0.1l-3,0.3c-2,0.2-4,0.4-5.9,0.7l-5.9,1l-1.5,0.2
			l-1.5,0.3l-2.9,0.7c-1.9,0.5-3.9,0.9-5.8,1.5l-5.7,1.7l-5.7,1.9c-0.9,0.3-1.9,0.6-2.8,1l-2.8,1.1c-1.9,0.7-3.7,1.4-5.6,2.2
			c-3.7,1.6-7.3,3.2-10.9,5c-14.5,6.9-28.2,15.3-41.8,24c-6.8,4.4-13.5,8.9-20.1,13.4c-6.7,4.5-13.2,9.2-20,13.7
			c-13.5,8.9-27.2,17.6-41.5,25.3c-7.2,3.8-14.5,7.3-22.1,10.2C83,184,75.2,186.2,67.1,187.1z"/>
	</g>
	<g>
		<path class="st5" d="M89.5,187.1c8-1.3,15.7-3.9,23.1-7.1c7.4-3.2,14.5-6.9,21.5-10.9c13.9-8.2,27.1-17.4,40.2-26.8
			c6.6-4.6,13.3-9.1,20-13.7c6.7-4.6,13.4-9.1,20.2-13.5C228.1,106.4,242,98,256.7,91c3.6-1.8,7.4-3.4,11.1-5.1
			c1.9-0.8,3.8-1.5,5.7-2.3l2.8-1.1c1-0.4,1.9-0.7,2.9-1l5.8-2l5.9-1.7c2-0.6,4-1,5.9-1.5l3-0.7l1.5-0.3l1.5-0.3l6.1-1
			c2-0.3,4.1-0.5,6.1-0.7l3.1-0.3l3.1-0.1c2-0.1,4.1-0.2,6.1-0.2c8.1,0.1,16.2,0.3,24.4,0.9c16.2,1.2,32.4,3.8,48.1,8.3
			c7.8,2.2,15.5,4.9,23.1,7.9c7.6,3,15,6.3,22.4,9.5c7.4,3.2,14.8,6.4,22.3,9.2c7.5,2.8,15.1,5.2,22.9,7.1
			c7.8,1.9,15.6,3.4,23.6,4.3c8,0.9,15.9,1.5,24,1.6c4,0.2,8,0,12,0c4,0,8-0.3,12-0.4c7.9-0.4,15.8-1.6,23.6-3.4
			c7.8-1.7,15.5-4.1,23-6.8c7.6-2.7,15-5.8,22.3-9.1c14.6-6.7,28.8-14.4,42.6-22.5c6.9-4.1,13.8-8.3,20.6-12.6
			c3.4-2.2,6.8-4.3,10.2-6.5c3.4-2.2,6.7-4.4,10.1-6.6c13.7-8.6,27.2-17.4,41-25.8c6.9-4.2,13.9-8.3,21.2-11.9
			c3.6-1.8,7.3-3.5,11.1-4.9c1.9-0.7,3.8-1.3,5.8-1.7c2-0.4,4-0.7,6-0.6c-2,0-4,0.4-6,0.9c-1.9,0.5-3.8,1.2-5.7,2
			c-3.7,1.5-7.3,3.4-10.8,5.3c-7,3.9-13.8,8.3-20.6,12.7c-13.4,8.9-26.6,18.3-40,27.4c-13.5,8.9-27.1,17.6-41.1,25.9
			c-14,8.2-28.2,16-43,22.7c-7.4,3.4-14.9,6.5-22.6,9.2c-7.7,2.7-15.5,5.1-23.5,6.9c-8,1.8-16.1,3-24.3,3.5
			c-4.1,0.1-8.1,0.4-12.2,0.4c-4.1,0-8.1,0.1-12.2,0c-8.1-0.1-16.3-0.7-24.4-1.7c-8.1-0.9-16.1-2.4-24.1-4.4
			c-7.9-1.9-15.7-4.4-23.4-7.2c-7.6-2.8-15.1-6.1-22.5-9.3c-7.4-3.2-14.8-6.5-22.2-9.5c-7.5-3-15-5.6-22.7-7.8
			c-15.4-4.4-31.3-7-47.3-8.2c-8-0.7-16-0.8-24.1-0.9c-2,0-4,0.1-6,0.2l-3,0.1l-3,0.3c-2,0.2-4,0.4-5.9,0.7l-5.9,1l-1.5,0.2
			l-1.5,0.3l-2.9,0.7c-1.9,0.5-3.9,0.9-5.8,1.5l-5.7,1.7l-5.7,1.9c-0.9,0.3-1.9,0.6-2.8,1l-2.8,1.1c-1.9,0.7-3.7,1.4-5.6,2.2
			c-3.7,1.6-7.3,3.2-10.9,5c-14.5,6.9-28.2,15.3-41.8,24c-6.8,4.4-13.5,8.9-20.1,13.4c-6.7,4.5-13.2,9.2-20,13.7
			c-13.5,8.9-27.2,17.6-41.5,25.3c-7.2,3.8-14.5,7.3-22.1,10.2C105.4,184,97.5,186.2,89.5,187.1z"/>
	</g>
	<g>
		<path class="st3" d="M723.3,96.8c8.2,0,9.6,0.9,9.6,2.5c0,2.1-2.7,3.7-13.1,6.4c-21.5,5.5-37.1,9.6-49.2,14.4
			c-6.6,2.7-10.1,5.5-12.6,5.5c-2.3,0-1.8-2.1-1.4-4.6l3.4-19.9c0.7-4.1,1.4-4.4,5.5-4.4H723.3z"/>
		<path class="st3" d="M747.1,31.3c-6.4-14.2-8.9-16.3-16.7-17.9c-1.8-0.5-3.9-0.7-5.3-0.7c-2.5-0.5-3.7-1.4-3.7-2.5
			c0-1.6,1.8-2.1,4.8-2.1c12.4,0,25.6,0.7,34.8,0.7c8,0,20.4-0.7,38.2-0.7c3.4,0,5.3,0.9,5.3,2.3s-1.4,2.3-3.4,2.3
			c-2.7,0.2-4.1,0.2-6.2,0.7c-6,0.9-6.9,3.4-6.9,5.7c0,3,1.4,7.6,5.3,17.4c10.8,27.9,25.2,62.1,35.5,88.9
			c9.4-21.1,33.2-77.2,40.8-98.7c1.1-2.5,1.8-5.5,1.8-7.6c0-3-1.4-4.6-5.5-5.3c-2.7-0.7-6.6-0.9-9.2-1.1c-3-0.2-4.1-0.9-4.1-2.3
			s1.1-2.3,5-2.3c15.1,0,26.3,0.7,29.8,0.7c3.4,0,18.3-0.7,25.4-0.7c3.4,0,5,0.7,5,2.3s-1.1,2.3-4.1,2.3c-2.7,0.2-6.4,0.2-10.1,2.1
			c-4.8,2.3-8,7.1-14.4,20.6c-9.2,19.7-17.4,38.2-30.5,67.3c-14.7,32.5-24.5,53.4-30.5,65.3c-6.6,13.5-8.9,16.5-11.9,16.5
			c-3.2,0-5-3.2-9.4-13.7L747.1,31.3z"/>
	</g>
</g>
<g>
</g>
<g>
</g>
<g>
</g>
<g>
</g>
<g>
</g>
<g>
</g>
<g>
</g>
<g>
</g>
<g>
</g>
<g>
</g>
<g>
</g>
<g>
</g>
<g>
</g>
<g>
</g>
<g>
</g>
</svg>
